<svg version="1.1" id="Layer_1" xmlns="http://www.w3.org/2000/svg" xmlns:xlink="http://www.w3.org/1999/xlink" x="0px" y="0px"
	 width="100%" viewBox="0 0 800 600" enable-background="new 0 0 800 600" xml:space="preserve">
<path fill="#FFFFFF" opacity="1.000000" stroke="none" 
	d="
M496.000000,601.000000 
	C332.166656,601.000000 168.833313,600.985046 5.500062,601.093872 
	C1.750662,601.096375 0.904367,600.249268 0.906386,596.499939 
	C1.012432,399.500000 1.012432,202.500000 0.906386,5.500051 
	C0.904367,1.750745 1.750842,0.905244 5.500036,0.906703 
	C269.166656,1.009302 532.833313,1.009302 796.499939,0.906703 
	C800.249146,0.905244 801.095703,1.750745 801.093628,5.500051 
	C800.987610,202.500000 800.987549,399.500000 801.093628,596.499939 
	C801.095642,600.249268 800.249695,601.099243 796.499878,601.094788 
	C696.500000,600.975647 596.500000,601.000000 496.000000,601.000000 
z"/>
<path fill="#40B9FF" opacity="1.000000" stroke="none" 
	d="
M434.271973,281.208252 
	C440.261749,272.872070 446.045471,264.827637 451.829163,256.783203 
	C452.146179,256.898987 452.463226,257.014740 452.780243,257.130524 
	C452.780243,262.044922 452.780243,266.959320 452.780243,271.873718 
	C452.780243,284.871094 452.780243,297.868469 452.780243,310.865845 
	C452.780243,327.003082 452.780243,327.003082 448.128265,327.017731 
	C443.232025,327.033142 443.232025,327.033142 443.231995,310.608978 
	C443.231995,301.986877 443.231995,293.364746 443.231995,283.204376 
	C440.010132,287.641083 437.601257,290.894135 435.260284,294.195343 
	C430.539856,300.852051 425.674927,307.417023 421.231262,314.254852 
	C418.867737,317.891754 417.602905,318.517578 414.879852,314.450531 
	C408.953217,305.598694 402.547821,297.066650 396.299164,288.432098 
	C395.555939,287.405121 395.143677,286.023315 393.067535,285.367401 
	C393.067535,291.801910 393.067535,298.019684 393.067535,304.237457 
	C393.067535,310.069611 392.639771,315.942749 393.193359,321.721863 
	C393.700531,327.016266 391.084717,327.275421 387.110687,327.090973 
	C384.692322,326.978699 384.002289,326.145996 384.009247,323.833130 
	C384.075500,301.838043 384.055603,279.842743 384.082153,257.847504 
	C384.082458,257.601776 384.370636,257.356384 384.803589,256.665100 
	C391.904236,266.687927 398.892853,276.545441 405.873199,286.408844 
	C409.240417,291.166779 412.691223,295.869965 415.911346,300.725800 
	C417.682678,303.396881 418.732239,303.100983 420.431885,300.617584 
	C424.851746,294.159637 429.505493,287.861786 434.271973,281.208252 
z"/>
<path fill="#050505" opacity="1.000000" stroke="none" 
	d="
M345.397491,340.460022 
	C343.240479,340.329773 340.153442,342.865936 340.063751,339.262238 
	C340.001770,336.769318 337.302948,332.724396 343.147125,331.657227 
	C350.887878,330.243652 354.924744,324.356567 354.995728,315.445435 
	C355.134979,297.964111 355.161316,280.479889 354.976288,262.999603 
	C354.936371,259.226837 355.722778,257.949615 359.794922,257.938934 
	C363.734711,257.928619 364.394714,259.180786 364.352905,262.732117 
	C364.137207,281.044067 364.422272,299.364288 364.033295,317.670990 
	C363.785522,329.330231 357.067047,337.145172 345.397491,340.460022 
z"/>
<path fill="#050505" opacity="1.000000" stroke="none" 
	d="
M433.991455,243.992828 
	C437.985779,243.992966 441.482483,243.974335 444.978790,244.002335 
	C446.408173,244.013779 448.030945,243.592667 447.967041,246.087677 
	C447.901703,248.638535 446.146149,247.991104 444.824524,247.993774 
	C427.508484,248.028687 410.192322,248.017410 392.876190,248.017502 
	C381.387604,248.017563 369.898865,248.043839 358.410614,247.982773 
	C357.007690,247.975311 354.874054,248.922272 354.969513,245.929184 
	C355.064331,242.957413 357.219696,244.041138 358.568176,244.037842 
	C383.543213,243.976715 408.518433,243.992905 433.991455,243.992828 
z"/>
</svg>